<?xml version="1.0" standalone="no"?>
<!DOCTYPE svg PUBLIC "-//W3C//DTD SVG 1.1//EN" "http://www.w3.org/Graphics/SVG/1.1/DTD/svg11.dtd" >
<svg xmlns="http://www.w3.org/2000/svg" xmlns:xlink="http://www.w3.org/1999/xlink" version="1.1">
<metadata></metadata>
<defs>
<font id="euclid_flexitalic" horiz-adv-x="686" >
<font-face units-per-em="2048" ascent="1651" descent="-397" />
<missing-glyph horiz-adv-x="516" />
<glyph horiz-adv-x="0" />
<glyph horiz-adv-x="682" />
<glyph unicode=" "  horiz-adv-x="516" />
<glyph unicode="&#x09;" horiz-adv-x="516" />
<glyph unicode="&#xa0;" horiz-adv-x="516" />
<glyph unicode="!" horiz-adv-x="530" d="M141 106q0 81 72 140h205q26 -29 26 -90q0 -76 -50.5 -124t-123.5 -48q-54 0 -91.5 35.5t-37.5 86.5zM289 440l65 473l115 541h180l-114 -541l-136 -473h-110z" />
<glyph unicode="&#x22;" horiz-adv-x="823" d="M381 934v520h156v-520h-156zM795 934v520h155v-520h-155z" />
<glyph unicode="#" horiz-adv-x="1703" d="M324 412v143h288l111 354h-248v144h293l125 401h158l-125 -401h368l125 401h156l-125 -401h244v-144h-289l-111 -354h246v-143h-291l-129 -412h-155l129 412h-369l-129 -412h-158l129 412h-243zM770 555h369l110 354h-368z" />
<glyph unicode="$" horiz-adv-x="1095" d="M111 266l157 96q43 -93 128 -154t210 -61q141 0 220 67.5t79 164.5q0 78 -44.5 138.5t-137.5 117.5l-141 86q-121 89 -180.5 180t-59.5 205q0 162 122 261.5t308 102.5l37 164h152l-39 -180q181 -47 282 -209l-149 -94q-45 78 -121 118t-168 40q-107 0 -181.5 -52.5 t-70.5 -150.5q3 -72 42.5 -126t125.5 -116l141 -88q60 -43 102.5 -81.5t80 -86.5t56.5 -103.5t19 -117.5q0 -82 -32 -154t-90.5 -126.5t-149 -87.5t-201.5 -35l-35 -164h-151l37 178q-117 27 -207 98t-141 170z" />
<glyph unicode="%" horiz-adv-x="882" d="M209 240q0 128 89 217.5t220 89.5q119 0 189.5 -75.5t70.5 -180.5q0 -128 -90 -217.5t-221 -89.5q-119 0 -188.5 75t-69.5 181zM295 655l31 144h575l-31 -144h-575zM336 250q0 -65 42 -104.5t103 -39.5q71 0 119.5 50t48.5 125q0 65 -41.5 104t-101.5 39 q-71 0 -120.5 -50t-49.5 -124zM406 1159q0 128 89 217.5t220 89.5q119 0 189.5 -75.5t70.5 -180.5q0 -128 -90 -217.5t-221 -89.5q-119 0 -188.5 75t-69.5 181zM532 1169q0 -65 42 -104t102 -39q71 0 120.5 49t49.5 123q0 66 -42 105.5t-102 39.5q-71 0 -120.5 -50 t-49.5 -124z" />
<glyph unicode="&#x26;" horiz-adv-x="1257" d="M150 403q0 130 62 243t181 184t269 71q59 0 118 -16l-172 569h748l-33 -160h-489l391 -1294h-181l-63 209q-58 -105 -162.5 -165t-249.5 -60q-97 0 -177.5 34.5t-132.5 93t-80.5 133.5t-28.5 158zM326 420q0 -116 72 -193t186 -77q137 0 227 93t90 226q0 114 -72 191 t-186 77q-136 0 -226.5 -93t-90.5 -224z" />
<glyph unicode="'" horiz-adv-x="409" d="M381 934v520h156v-520h-156z" />
<glyph unicode="(" horiz-adv-x="524" d="M209 231q0 680 461 1293l141 -66q-228 -311 -335 -602t-107 -598q0 -252 63 -489l-147 -60q-76 270 -76 522z" />
<glyph unicode=")" horiz-adv-x="522" d="M-27 -225q228 312 335.5 603t107.5 597q0 248 -64 489l148 60q75 -266 75 -523q0 -681 -460 -1292z" />
<glyph unicode="*" horiz-adv-x="925" d="M330 1143l39 127l274 -92v276h129v-274l272 88l39 -123l-268 -90l168 -232l-109 -75l-165 229l-168 -227l-107 71l166 230z" />
<glyph unicode="+" horiz-adv-x="1318" d="M332 492v143h375v364h145v-364h375v-143h-375v-373h-145v373h-375z" />
<glyph unicode="," horiz-adv-x="516" d="M86 -291l152 291h-105l53 252h250l-55 -254l-178 -289h-117z" />
<glyph unicode="-" d="M195 469l38 182h498l-39 -182h-497z" />
<glyph unicode="." horiz-adv-x="538" d="M147 135q0 63 45 107.5t107 44.5q63 0 107.5 -44.5t44.5 -107.5t-44.5 -107t-107.5 -44q-62 0 -107 44t-45 107z" />
<glyph unicode="/" horiz-adv-x="759" d="M102 0l701 1454h164l-699 -1454h-166z" />
<glyph unicode="0" horiz-adv-x="1658" d="M221 666q0 123 36.5 241t109 219.5t172 178.5t233.5 121t285 44q127 0 237 -37t190 -101.5t137 -150.5t85.5 -186t28.5 -207q0 -123 -36.5 -241t-109 -219.5t-172 -178.5t-233.5 -121t-285 -44q-127 0 -237 37t-190 101.5t-137 150.5t-85.5 186t-28.5 207zM403 682 q0 -143 58 -262t176.5 -193.5t277.5 -74.5q142 0 263 49.5t202 134.5t126.5 197.5t45.5 238.5q0 107 -34 202.5t-97 169t-161 116.5t-218 43q-142 0 -263 -49.5t-203 -134t-127.5 -198t-45.5 -239.5z" />
<glyph unicode="1" horiz-adv-x="569" d="M197 0l274 1292l215 178l-313 -1470h-176z" />
<glyph unicode="2" horiz-adv-x="1144" d="M51 0l676 614q-164 0 -269.5 109.5t-105.5 277.5q0 91 34.5 176t96 150t153 104t198.5 39q92 0 168 -32.5t125 -87.5t75.5 -126t26.5 -149q0 -93 -46.5 -199.5t-138.5 -191.5l-569 -518h590l-35 -166h-979zM524 1018q0 -105 67.5 -175.5t170.5 -70.5q130 0 212.5 83.5 t82.5 207.5q0 104 -66.5 172t-171.5 68q-129 0 -212 -82.5t-83 -202.5z" />
<glyph unicode="3" horiz-adv-x="1038" d="M127 203l160 90q34 -68 101 -104.5t159 -36.5q146 0 235.5 93t89.5 234q0 126 -81 205.5t-228 79.5h-100l411 524h-503l35 166h794l-442 -563q141 -40 219 -148t78 -247q0 -102 -33.5 -193t-97 -163t-165.5 -114t-229 -42q-141 0 -245.5 59.5t-157.5 159.5z" />
<glyph unicode="4" horiz-adv-x="1206" d="M78 401l1222 1069l-192 -905h190l-34 -164h-189l-86 -401h-176l86 401h-821zM489 565h445l100 477z" />
<glyph unicode="5" horiz-adv-x="1107" d="M180 211l162 88q31 -68 99.5 -107.5t154.5 -39.5q151 0 242.5 93.5t91.5 235.5q0 122 -75 201.5t-196 79.5q-147 0 -237 -96l-113 57l164 731h729l-35 -166h-557l-86 -387q73 25 152 25q101 0 185 -35.5t138 -96t83.5 -137.5t29.5 -161q0 -224 -143 -368t-389 -144 q-137 0 -243 62.5t-157 164.5z" />
<glyph unicode="6" horiz-adv-x="1093" d="M156 414q0 105 40.5 197t131.5 206l512 637h219l-434 -534q34 6 63 6q100 0 184 -35.5t138 -95.5t84 -137.5t30 -161.5q0 -142 -62.5 -257.5t-185 -185t-284.5 -69.5q-100 0 -184 35.5t-138 95.5t-84 137.5t-30 161.5zM338 430q0 -123 74 -200.5t194 -77.5 q153 0 244.5 93t91.5 236q0 122 -74.5 200.5t-195.5 78.5q-148 0 -241 -94.5t-93 -235.5z" />
<glyph unicode="7" horiz-adv-x="1040" d="M121 0l901 1288h-682l35 166h960l-1013 -1454h-201z" />
<glyph unicode="8" horiz-adv-x="1157" d="M186 408q0 157 79 285.5t218 189.5q-69 84 -69 196q0 166 104.5 278.5t278.5 112.5q151 0 245.5 -93.5t94.5 -221.5q0 -98 -40 -181.5t-112 -137.5q81 -59 124.5 -148.5t43.5 -189.5q0 -141 -61.5 -257.5t-180.5 -186.5t-274 -70q-204 0 -327.5 124.5t-123.5 299.5z M369 426q0 -122 75.5 -198t202.5 -76q146 0 236 96t90 235q0 122 -77 199.5t-204 77.5q-145 0 -234 -97t-89 -237zM588 1098q0 -73 39 -120t108 -54h19h8q89 0 145 63.5t56 151.5q0 78 -48 125t-127 47q-89 0 -144.5 -63t-55.5 -150z" />
<glyph unicode="9" horiz-adv-x="1093" d="M272 956q0 142 63 258t186 186t284 70q100 0 184 -36t138 -96.5t84 -138t30 -161.5q0 -105 -40.5 -197t-131.5 -206l-510 -635h-219l432 532q-35 -6 -63 -6q-133 0 -234.5 61.5t-152 158.5t-50.5 210zM455 971q0 -122 74.5 -200.5t195.5 -78.5q148 0 241 94.5t93 235.5 q0 123 -74 200.5t-194 77.5q-153 0 -244.5 -93t-91.5 -236z" />
<glyph unicode=":" horiz-adv-x="538" d="M147 135q0 63 45 107.5t107 44.5q63 0 107.5 -44.5t44.5 -107.5t-44.5 -107t-107.5 -44q-62 0 -107 44t-45 107zM307 889q0 63 45 107t107 44q63 0 107 -44t44 -107t-44 -107.5t-107 -44.5q-62 0 -107 44.5t-45 107.5z" />
<glyph unicode=";" horiz-adv-x="575" d="M117 -291l151 291h-104l53 252h250l-55 -254l-179 -289h-116zM326 889q0 63 44.5 107t106.5 44q63 0 107.5 -44t44.5 -107t-44.5 -107.5t-107.5 -44.5q-62 0 -106.5 44.5t-44.5 107.5z" />
<glyph unicode="&#x3c;" horiz-adv-x="1046" d="M227 551l592 565l103 -106l-486 -459l486 -463l-103 -104z" />
<glyph unicode="=" horiz-adv-x="1427" d="M379 268v144h909v-144h-909zM379 717v143h909v-143h-909z" />
<glyph unicode="&#x3e;" horiz-adv-x="1048" d="M358 88l486 463l-486 459l105 106l592 -565l-592 -567z" />
<glyph unicode="?" horiz-adv-x="976" d="M268 1036q6 86 43 164.5t98 138.5t149 95.5t190 35.5q92 0 168.5 -33.5t125 -90.5t75 -129t26.5 -150q0 -92 -35 -176.5t-98 -149.5t-159 -104t-210 -39h-123l33 162h90q151 0 240.5 85.5t89.5 209.5q0 105 -67 177.5t-171 72.5q-124 0 -206.5 -77.5t-88.5 -191.5h-170z M408 106q0 82 71 140h205q12 -13 19.5 -39.5t7.5 -50.5q0 -76 -50.5 -124t-123.5 -48q-54 0 -91.5 35.5t-37.5 86.5z" />
<glyph unicode="@" horiz-adv-x="1656" d="M244 690q0 170 65.5 318t174.5 248t253 157t299 57q148 0 277 -45.5t222.5 -127t147.5 -202t54 -264.5q0 -128 -31.5 -227t-85 -156t-118.5 -85.5t-138 -28.5q-64 0 -121 30.5t-80 79.5q-106 -106 -272 -106q-144 0 -234 101.5t-90 250.5q0 188 127.5 318.5t317.5 130.5 q141 0 225 -78l12 57h148l-105 -489q-14 -71 10 -116.5t87 -45.5q87 0 147.5 98.5t60.5 270.5q0 156 -74.5 271.5t-201 174.5t-287.5 59q-131 0 -249 -47t-206 -130t-140 -206.5t-52 -267.5q0 -122 39 -226t111 -181t180.5 -120.5t240.5 -43.5q213 0 377 84l51 -129 q-94 -42 -210 -66t-218 -24q-162 0 -297.5 55t-226 150t-140.5 224t-50 277zM725 705q0 -107 55.5 -169.5t145.5 -62.5q139 0 209 115l69 321q-32 47 -86.5 71t-113.5 24q-113 0 -196 -85.5t-83 -213.5z" />
<glyph unicode="A" horiz-adv-x="1445" d="M20 0l1016 1470l389 -1470h-194l-98 381h-639l-261 -381h-213zM610 553h480l-132 510z" />
<glyph unicode="B" horiz-adv-x="1261" d="M172 0l309 1454h426q99 0 179.5 -30t130 -80.5t76 -113t26.5 -130.5q0 -122 -62.5 -216.5t-171.5 -140.5q91 -38 145 -113t54 -175q0 -217 -153.5 -336t-425.5 -119h-533zM395 174h340q167 0 263 75.5t96 196.5q0 94 -71.5 156t-205.5 62h-317zM532 823h285 q143 0 227 71.5t84 182.5q0 87 -60.5 146t-172.5 59h-264z" />
<glyph unicode="C" horiz-adv-x="1431" d="M231 666q0 124 35.5 241t106.5 219t169.5 179t234 121t290.5 44q323 0 512 -225l-141 -125q-146 172 -385 172q-182 0 -327 -84.5t-222.5 -223.5t-77.5 -302q0 -103 32.5 -195.5t93 -165.5t157.5 -116t217 -43q215 0 379 125l102 -154q-202 -149 -492 -149 q-160 0 -291.5 56.5t-216 152t-130.5 217.5t-46 256z" />
<glyph unicode="D" horiz-adv-x="1474" d="M172 0l309 1454h404q157 0 285.5 -47t213 -128.5t130 -192t45.5 -238.5q0 -177 -71 -334t-194.5 -270t-299 -178.5t-376.5 -65.5h-446zM395 174h228q165 0 305.5 54t235 145.5t147.5 211t53 249.5q0 196 -127 321t-346 125h-260z" />
<glyph unicode="E" horiz-adv-x="1114" d="M172 0l309 1454h846l-39 -180h-661l-92 -440h536l-39 -181h-536l-101 -473h662l-39 -180h-846z" />
<glyph unicode="F" horiz-adv-x="1036" d="M172 0l309 1454h832l-39 -180h-647l-92 -440h507l-38 -181h-506l-140 -653h-186z" />
<glyph unicode="G" horiz-adv-x="1597" d="M231 666q0 124 35.5 241t106.5 219t169.5 179t234 121t290.5 44q172 0 314 -59t227 -166l-140 -125q-64 81 -175.5 126.5t-239.5 45.5q-182 0 -327 -84.5t-222.5 -223.5t-77.5 -302q0 -103 32.5 -195.5t93 -165.5t157.5 -116t217 -43q249 0 397 110l82 381h-410l119 181 h518l-145 -676q-118 -83 -268 -128.5t-304 -45.5q-160 0 -291.5 56.5t-216 152t-130.5 217.5t-46 256z" />
<glyph unicode="H" horiz-adv-x="1519" d="M172 0l309 1454h187l-133 -620h802l133 620h187l-309 -1454h-187l139 653h-802l-140 -653h-186z" />
<glyph unicode="I" horiz-adv-x="530" d="M172 0l309 1454h187l-310 -1454h-186z" />
<glyph unicode="J" horiz-adv-x="1026" d="M94 315q0 55 10 101h187q-6 -41 -6 -72q0 -93 55 -137.5t152 -44.5q111 0 188 64t104 190l222 1038h188l-221 -1040q-49 -229 -172 -329.5t-322 -100.5q-165 0 -275 88.5t-110 242.5z" />
<glyph unicode="K" horiz-adv-x="1296" d="M172 0l309 1454h187l-156 -725l801 725h235l-831 -756l571 -698h-211l-571 694l-148 -694h-186z" />
<glyph unicode="L" horiz-adv-x="1032" d="M172 0l309 1454h187l-271 -1272h654l-39 -182h-840z" />
<glyph unicode="M" horiz-adv-x="1751" d="M172 0l313 1470l523 -786l884 786l-313 -1470h-186l211 989l-637 -565l-392 594l-217 -1018h-186z" />
<glyph unicode="N" horiz-adv-x="1558" d="M172 0l313 1470l801 -1067l223 1051h187l-314 -1470l-802 1058l-222 -1042h-186z" />
<glyph unicode="O" horiz-adv-x="1673" d="M231 666q0 124 35.5 241t106.5 219t169.5 179t234 121t290.5 44q158 0 288.5 -57t214 -152.5t129.5 -217.5t46 -255q0 -103 -25 -202t-72.5 -188.5t-120 -165t-163.5 -131t-207.5 -86.5t-247.5 -31q-158 0 -288.5 57t-214 152.5t-129.5 217.5t-46 255zM426 682 q0 -106 32.5 -199t93.5 -165t157.5 -114t216.5 -42q137 0 255.5 49.5t199 133t126 194.5t45.5 233q0 106 -32 199t-93 165t-157.5 114t-216.5 42q-182 0 -327 -84.5t-222.5 -223.5t-77.5 -302z" />
<glyph unicode="P" horiz-adv-x="1128" d="M172 0l309 1454h385q215 0 330 -107.5t115 -281.5q0 -230 -156 -364t-446 -134h-230l-121 -567h-186zM516 739h234q172 0 272 89t100 235q0 102 -68.5 160.5t-203.5 58.5h-219z" />
<glyph unicode="Q" horiz-adv-x="1693" d="M231 666q0 124 35.5 241t106.5 219t169.5 179t234 121t290.5 44q158 0 288.5 -57t214 -152.5t129.5 -217.5t46 -255q0 -155 -56 -300t-161 -257l166 -186l-133 -119l-170 193q-207 -135 -482 -135q-158 0 -288.5 57t-214 152.5t-129.5 217.5t-46 255zM426 682 q0 -106 32.5 -199t93.5 -165t157.5 -114t216.5 -42q191 0 344 94l-178 205l131 117l182 -207q147 170 147 401q0 106 -32 199t-93 165t-157.5 114t-216.5 42q-182 0 -327 -84.5t-222.5 -223.5t-77.5 -302z" />
<glyph unicode="R" horiz-adv-x="1273" d="M172 0l309 1454h408q203 0 311.5 -99t108.5 -263q0 -183 -112 -299t-310 -142l352 -651h-205l-342 645h-196l-138 -645h-186zM530 807h244q164 0 255 74.5t91 197.5q0 97 -65 151t-193 54h-231z" />
<glyph unicode="S" horiz-adv-x="1093" d="M117 266l170 105q42 -92 125 -151.5t200 -59.5q128 0 204.5 59.5t76.5 151.5q0 82 -43.5 142t-138.5 126l-123 86q-122 89 -181 178t-59 203q0 165 125.5 264.5t314.5 99.5q132 0 242.5 -55.5t179.5 -169.5l-168 -106q-89 155 -270 155q-101 0 -168 -50.5t-67 -137.5 q0 -71 40 -125t128 -117l124 -88q60 -43 102.5 -81.5t80 -86.5t56.5 -103.5t19 -117.5q0 -171 -134 -287t-355 -116q-163 0 -290 78t-191 204z" />
<glyph unicode="T" horiz-adv-x="1060" d="M311 1274l39 180h979l-39 -180h-397l-270 -1274h-187l271 1274h-396z" />
<glyph unicode="U" horiz-adv-x="1462" d="M264 422q0 64 15 135l190 897h186l-192 -901q-12 -58 -12 -107q0 -139 85 -211.5t236 -72.5q177 0 299.5 101t161.5 290l192 901h187l-191 -897q-60 -283 -219 -428t-438 -145q-225 0 -362.5 117t-137.5 321z" />
<glyph unicode="V" horiz-adv-x="1359" d="M324 1454h190l242 -1053l690 1053h209l-979 -1470z" />
<glyph unicode="W" horiz-adv-x="1820" d="M340 1454h176l111 -962l592 978l167 -991l519 975h194l-796 -1470l-168 1034l-625 -1034z" />
<glyph unicode="X" horiz-adv-x="1376" d="M43 0l705 762l-349 692h201l279 -551l510 551h229l-660 -713l375 -741h-203l-303 600l-555 -600h-229z" />
<glyph unicode="Y" horiz-adv-x="1296" d="M330 1454h205l270 -659l547 659h233l-711 -840l-131 -614h-186l131 614z" />
<glyph unicode="Z" horiz-adv-x="1245" d="M43 0l1075 1274h-710l38 180h1051l-1075 -1272h795l-39 -182h-1135z" />
<glyph unicode="[" horiz-adv-x="583" d="M96 -289l385 1807h383l-30 -146h-222l-323 -1515h221l-31 -146h-383z" />
<glyph unicode="\" horiz-adv-x="1173" d="M309 1454h164l701 -1454h-164z" />
<glyph unicode="]" horiz-adv-x="583" d="M-20 -289l30 146h221l324 1515h-221l31 146h383l-386 -1807h-382z" />
<glyph unicode="^" horiz-adv-x="1249" d="M203 647l559 819l559 -819h-172l-387 565l-389 -565h-170z" />
<glyph unicode="_" horiz-adv-x="868" d="M-33 -150l33 150h868l-32 -150h-869z" />
<glyph unicode="`" horiz-adv-x="555" d="M395 1454h213l115 -338h-125z" />
<glyph unicode="a" horiz-adv-x="1241" d="M184 449q0 156 74 290.5t211.5 217.5t308.5 83q203 0 326 -120l22 104h179l-218 -1024h-169l18 90q-136 -106 -311 -106q-133 0 -235 64t-154 169t-52 232zM371 463q0 -141 80.5 -226t212.5 -85q86 0 167.5 36t139.5 101l92 438q-42 68 -121.5 106.5t-169.5 38.5 q-168 0 -284.5 -117.5t-116.5 -291.5z" />
<glyph unicode="b" horiz-adv-x="1241" d="M154 0l309 1454h176l-111 -514q133 100 303 100q133 0 234.5 -64t153 -169t51.5 -232q0 -156 -73.5 -290.5t-210.5 -217.5t-308 -83q-202 0 -328 116l-20 -100h-176zM391 295q42 -67 122.5 -105t170.5 -38q168 0 284.5 117.5t116.5 291.5q0 141 -80 226t-212 85 q-87 0 -168.5 -36.5t-139.5 -102.5z" />
<glyph unicode="c" horiz-adv-x="1097" d="M188 465q0 158 75.5 289.5t209.5 208.5t297 77q138 0 240 -56.5t161 -160.5l-149 -100q-41 72 -109.5 110.5t-156.5 38.5q-163 0 -273 -112.5t-110 -280.5q0 -151 91 -239t226 -88q150 0 266 110l119 -123q-175 -155 -401 -155q-150 0 -262.5 68.5t-168 176.5t-55.5 236z " />
<glyph unicode="d" horiz-adv-x="1241" d="M184 449q0 156 74 290.5t211.5 217.5t308.5 83q200 0 326 -120l115 534h178l-310 -1454h-169l16 88q-137 -104 -311 -104q-132 0 -233.5 64t-153.5 169t-52 232zM371 463q0 -141 80.5 -226t212.5 -85q86 0 167.5 36t139.5 101l92 438q-42 68 -121.5 106.5t-169.5 38.5 q-168 0 -284.5 -117.5t-116.5 -291.5z" />
<glyph unicode="e" horiz-adv-x="1169" d="M188 465q0 158 75.5 289.5t209.5 208.5t297 77q108 0 194.5 -37.5t140 -100.5t81.5 -143t28 -169q0 -62 -12 -121h-829q3 -147 93.5 -232t221.5 -85q163 0 277 114l118 -123q-169 -159 -409 -159q-150 0 -262.5 68.5t-168 176.5t-55.5 236zM393 623h629q-1 117 -75 186.5 t-191 69.5q-128 0 -225.5 -69t-137.5 -187z" />
<glyph unicode="f" horiz-adv-x="727" d="M227 0l185 864h-183l33 160h197q-60 67 -60 162q0 119 96 193.5t259 74.5h231l-35 -160h-192q-91 0 -144 -37t-53 -108q0 -53 31.5 -87.5t89.5 -37.5h211l-33 -160h-270l-184 -864h-179z" />
<glyph unicode="g" horiz-adv-x="1222" d="M117 -262l110 149q53 -53 141 -83.5t189 -30.5q171 0 270 82.5t99 236.5q0 23 -6 41q-133 -96 -302 -96q-192 0 -310 124.5t-118 313.5q0 116 41.5 219.5t116.5 180t185.5 121t240.5 44.5q183 0 303 -102l19 86h178l-170 -801q6 -41 6 -112q0 -126 -43 -224 t-119.5 -159.5t-177.5 -93t-221 -31.5q-122 0 -241 34t-191 101zM375 489q0 -138 75 -211t207 -73q80 0 156.5 32.5t134.5 92.5l90 420q-45 58 -119 90t-155 32q-165 0 -277 -106t-112 -277z" />
<glyph unicode="h" horiz-adv-x="1196" d="M154 0l309 1454h176l-111 -518q127 104 308 104q155 0 255.5 -97.5t100.5 -258.5q0 -54 -12 -115l-121 -569h-178l116 553q11 60 11 90q0 108 -63.5 168.5t-174.5 60.5q-169 0 -287 -143l-153 -729h-176z" />
<glyph unicode="i" horiz-adv-x="483" d="M154 0l217 1024h176l-217 -1024h-176zM397 1313q0 67 43.5 112t104.5 45q46 0 78 -28.5t32 -69.5q0 -77 -61 -125h-174q-23 26 -23 66z" />
<glyph unicode="j" horiz-adv-x="485" d="M-147 -377l34 168h66q94 0 133.5 37.5t60.5 136.5l226 1059h178l-229 -1077q-37 -176 -123.5 -250t-259.5 -74h-86zM399 1313q0 67 43.5 112t104.5 45q46 0 78 -28.5t32 -69.5q0 -77 -61 -125h-174q-23 26 -23 66z" />
<glyph unicode="k" horiz-adv-x="1064" d="M154 0l309 1454h178l-192 -899l555 469h227l-592 -498l416 -526h-203l-410 518l-110 -518h-178z" />
<glyph unicode="l" horiz-adv-x="485" d="M154 0l309 1454h178l-309 -1454h-178z" />
<glyph unicode="m" horiz-adv-x="1814" d="M154 0l217 1024h170l-19 -94q124 110 295 110q97 0 171 -41.5t114 -117.5q156 159 385 159q149 0 237 -92.5t88 -249.5q0 -56 -12 -120l-123 -578h-178l119 561q12 59 12 105q0 100 -53.5 153t-157.5 53q-78 0 -150.5 -45.5t-125.5 -124.5q0 -60 -15 -124l-122 -578h-177 l119 561q13 60 13 103q0 100 -54.5 154t-158.5 54q-154 0 -261 -141l-155 -731h-178z" />
<glyph unicode="n" horiz-adv-x="1196" d="M154 0l217 1024h170l-21 -94q134 110 316 110q155 0 255.5 -97.5t100.5 -258.5q0 -54 -12 -115l-121 -569h-178l116 553q11 60 11 90q0 108 -63.5 168.5t-174.5 60.5q-170 0 -285 -143l-153 -729h-178z" />
<glyph unicode="o" horiz-adv-x="1230" d="M188 465q0 158 76 289.5t210 208.5t296 77q150 0 263 -68.5t168.5 -176t55.5 -234.5q0 -159 -75.5 -291.5t-208.5 -209t-295 -76.5q-113 0 -207 39.5t-155 106.5t-94.5 153.5t-33.5 181.5zM373 479q0 -150 92.5 -238.5t226.5 -88.5q163 0 273 112t110 281 q0 150 -92.5 238.5t-226.5 88.5q-163 0 -273 -112t-110 -281z" />
<glyph unicode="p" horiz-adv-x="1245" d="M74 -377l297 1401h170l-19 -90q136 106 314 106q132 0 233 -64t153 -169t52 -232q0 -156 -74 -290.5t-211 -217.5t-307 -83q-207 0 -328 118l-102 -479h-178zM395 295q42 -67 121.5 -105t169.5 -38q169 0 285 117.5t116 291.5q0 141 -80 226t-212 85q-86 0 -167 -36 t-139 -101z" />
<glyph unicode="q" horiz-adv-x="1241" d="M184 449q0 156 74 290.5t211.5 217.5t308.5 83q203 0 326 -120l22 104h179l-297 -1401h-179l97 459q-131 -98 -301 -98q-133 0 -235 64t-154 169t-52 232zM371 463q0 -141 80.5 -226t212.5 -85q86 0 167.5 36t139.5 101l92 438q-42 68 -121.5 106.5t-169.5 38.5 q-168 0 -284.5 -117.5t-116.5 -291.5z" />
<glyph unicode="r" horiz-adv-x="739" d="M154 0l217 1024h178l-27 -125q57 66 139 102.5t177 36.5q29 0 69 -4l-39 -186q-40 12 -98 12q-88 0 -163 -41t-126 -117l-149 -702h-178z" />
<glyph unicode="s" horiz-adv-x="851" d="M109 233l155 70q58 -162 234 -162q70 0 119 34t49 89q0 51 -32.5 87t-107.5 79l-80 47q-198 114 -198 279q0 125 93.5 204.5t238.5 79.5q111 0 197 -52.5t126 -151.5l-160 -72q-46 117 -174 117q-65 0 -105 -30.5t-40 -84.5q0 -43 28 -78t87 -70l79 -49q102 -57 163 -125 t61 -161q0 -131 -103.5 -215t-249.5 -84q-294 0 -380 249z" />
<glyph unicode="t" horiz-adv-x="763" d="M227 864v160h201l47 215l201 92l-66 -307h273l-37 -160h-271l-110 -510q-12 -54 -12 -92q0 -52 31 -77t104 -25h121l-35 -160h-129q-140 0 -208.5 54.5t-68.5 166.5q0 34 15 115l112 528h-168z" />
<glyph unicode="u" horiz-adv-x="1163" d="M201 332q0 52 12 114l123 578h178l-119 -561q-12 -58 -12 -103q0 -103 58.5 -155.5t168.5 -52.5q172 0 285 143l154 729h178l-217 -1024h-170l20 94q-131 -110 -309 -110q-156 0 -253 94t-97 254z" />
<glyph unicode="v" horiz-adv-x="1069" d="M223 1024h193l186 -682l467 682h217l-751 -1040z" />
<glyph unicode="w" horiz-adv-x="1484" d="M303 1024h174l70 -743l438 759l119 -764l385 748h176l-518 -1024h-150l-92 610l-346 -610h-151z" />
<glyph unicode="x" horiz-adv-x="1091" d="M29 0l536 537l-278 487h186l211 -369l369 369h217l-508 -508l297 -516h-189l-227 397l-395 -397h-219z" />
<glyph unicode="y" horiz-adv-x="1046" d="M152 -377l284 438l-211 963h183l163 -772l490 772h201l-910 -1401h-200z" />
<glyph unicode="z" horiz-adv-x="1028" d="M41 0l790 864h-538l33 160h862l-791 -864h584l-35 -160h-905z" />
<glyph unicode="{" horiz-adv-x="606" d="M162 547l28 137h23q71 0 105 38.5t49 113.5l86 401q34 159 109 220t220 61h101l-31 -140h-66q-87 0 -125 -35.5t-59 -128.5l-80 -376q-21 -95 -56.5 -147.5t-100.5 -76.5q73 -33 73 -127q0 -48 -10 -94l-78 -366q-10 -55 -10 -82q0 -50 28 -72.5t93 -22.5h67l-30 -139 h-97q-111 0 -165 49.5t-54 153.5q0 54 15 125l75 358q9 35 9 64q0 86 -99 86h-20z" />
<glyph unicode="|" horiz-adv-x="669" d="M371 -377v1831h157v-1831h-157z" />
<glyph unicode="}" horiz-adv-x="606" d="M-16 -289l30 139h66q87 0 125 35.5t59 128.5l80 377q21 94 57 146.5t101 76.5q-74 33 -74 127q0 49 10 95l78 366q10 55 10 82q0 50 -27.5 72t-92.5 22h-68l31 140h96q111 0 165 -49.5t54 -153.5q0 -59 -14 -125l-76 -359q-8 -31 -8 -63q0 -42 22.5 -64t75.5 -22h21 l-29 -137h-23q-71 0 -104.5 -38.5t-48.5 -113.5l-86 -401q-34 -159 -109.5 -220t-220.5 -61h-100z" />
<glyph unicode="~" horiz-adv-x="1253" d="M324 422v176l221 150l405 -154l230 151v-167l-222 -154l-407 154z" />
<glyph unicode="&#xa2;" horiz-adv-x="1144" d="M207 465q0 155 72.5 285t202 207.5t288.5 82.5l35 164h137l-39 -176q192 -40 287 -205l-150 -100q-41 72 -109.5 110.5t-156.5 38.5q-163 0 -273 -112.5t-110 -280.5q0 -151 91.5 -239t226.5 -88q150 0 266 110l119 -123q-175 -155 -402 -155h-10l-35 -164h-137l37 180 q-160 43 -250 172t-90 293z" />
<glyph unicode="&#xa3;" horiz-adv-x="1236" d="M147 0l35 166h207l96 459h-204l32 149h222q-42 39 -65.5 107t-23.5 139q0 191 138 320.5t340 129.5q124 0 216 -56t136.5 -144.5t44.5 -194.5v-20h-172v6q0 112 -71 178t-171 66q-121 0 -206 -79t-85 -198q0 -114 71.5 -184t172.5 -70h176l-32 -149h-338l-99 -459h609 l-35 -166h-994z" />
<glyph unicode="&#xa5;" horiz-adv-x="1310" d="M299 256l33 150h323l33 151h-323l30 150h267l-320 747h195l276 -659l553 659h221l-635 -747h265l-31 -150h-324l-33 -151h324l-33 -150h-323l-54 -256h-174l54 256h-324z" />
<glyph unicode="&#xa8;" horiz-adv-x="833" d="M338 1292q0 50 36.5 85.5t86.5 35.5q53 0 89 -35t36 -86q0 -52 -36 -87.5t-89 -35.5q-50 0 -86.5 35.5t-36.5 87.5zM799 1292q0 51 36 86t87 35q52 0 87 -35t35 -86q0 -53 -35 -88t-87 -35q-51 0 -87 35.5t-36 87.5z" />
<glyph unicode="&#xa9;" horiz-adv-x="1675" d="M248 725q0 151 59 289t158.5 238t237 159t288.5 59q121 0 234.5 -37.5t205 -107t160.5 -161t106.5 -205t37.5 -234.5q0 -150 -59 -287.5t-158.5 -237.5t-237.5 -159t-289 -59t-288.5 59t-237 159t-158.5 237.5t-59 287.5zM389 725q0 -122 47.5 -233t128 -191.5 t191.5 -128t233 -47.5t233.5 47.5t192 128t128.5 191.5t48 233t-47.5 233.5t-128.5 192.5t-192.5 128.5t-233.5 47.5t-233 -48t-191.5 -128.5t-128 -192t-47.5 -233.5zM618 729q0 170 113.5 284.5t282.5 114.5q91 0 180 -41t141 -122l-104 -95q-38 54 -95 85.5t-116 31.5 q-113 0 -181.5 -72t-68.5 -186t68.5 -186t181.5 -72q59 0 116 31.5t95 85.5l104 -94q-52 -81 -141 -122.5t-180 -41.5q-169 0 -282.5 114.5t-113.5 284.5z" />
<glyph unicode="&#xab;" horiz-adv-x="1030" d="M166 522l409 445l107 -99l-340 -364l178 -385l-137 -62zM592 522l409 445l107 -99l-340 -364l178 -385l-137 -62z" />
<glyph unicode="&#xad;" d="M195 469l38 182h498l-39 -182h-497z" />
<glyph unicode="&#xae;" horiz-adv-x="1675" d="M248 725q0 151 59 289t158.5 238t237 159t288.5 59q121 0 234.5 -37.5t205 -107t160.5 -161t106.5 -205t37.5 -234.5q0 -150 -59 -287.5t-158.5 -237.5t-237.5 -159t-289 -59t-288.5 59t-237 159t-158.5 237.5t-59 287.5zM389 725q0 -122 47.5 -233t128 -191.5 t191.5 -128t233 -47.5t233.5 47.5t192 128t128.5 191.5t48 233t-47.5 233.5t-128.5 192.5t-192.5 128.5t-233.5 47.5t-233 -48t-191.5 -128.5t-128 -192t-47.5 -233.5zM733 336v786h289q103 0 170.5 -61.5t67.5 -159.5q-1 -84 -49.5 -142t-125.5 -79l254 -344h-163l-244 334 h-60v-334h-139zM874 799h123q55 0 84 24.5t29 69.5q0 94 -113 94h-123v-188z" />
<glyph unicode="&#xb4;" horiz-adv-x="546" d="M305 1116l258 338h205l-313 -338h-150z" />
<glyph unicode="&#xb8;" horiz-adv-x="403" d="M-10 -276l215 276h121l-136 -276h-200z" />
<glyph unicode="&#xbb;" horiz-adv-x="1030" d="M139 156l340 364l-178 385l137 62l217 -465l-409 -445zM565 156l340 364l-178 385l137 62l217 -465l-409 -445z" />
<glyph unicode="&#x2c6;" horiz-adv-x="829" d="M328 1253l401 217l303 -231l-82 -106l-233 178l-324 -178z" />
<glyph unicode="&#x2da;" horiz-adv-x="536" d="M352 1352q0 84 59 139t144 55t144 -55t59 -139q0 -81 -59 -137t-144 -56t-144 56t-59 137zM457 1352q0 -42 28.5 -69.5t69.5 -27.5t69.5 27.5t28.5 69.5q0 43 -28.5 70.5t-69.5 27.5t-69.5 -27.5t-28.5 -70.5z" />
<glyph unicode="&#x2dc;" horiz-adv-x="892" d="M338 1159l14 39q40 97 94.5 145t137.5 48q49 0 99.5 -22.5t92 -45.5t68.5 -23q40 0 64 21.5t46 69.5h142l-15 -37q-39 -95 -92 -144t-139 -49q-49 0 -99.5 22.5t-92.5 45t-70 22.5q-38 0 -63 -22t-46 -70h-141z" />
<glyph unicode="&#x2000;" horiz-adv-x="817" />
<glyph unicode="&#x2001;" horiz-adv-x="1634" />
<glyph unicode="&#x2002;" horiz-adv-x="817" />
<glyph unicode="&#x2003;" horiz-adv-x="1634" />
<glyph unicode="&#x2004;" horiz-adv-x="544" />
<glyph unicode="&#x2005;" horiz-adv-x="408" />
<glyph unicode="&#x2006;" horiz-adv-x="272" />
<glyph unicode="&#x2007;" horiz-adv-x="272" />
<glyph unicode="&#x2008;" horiz-adv-x="204" />
<glyph unicode="&#x2009;" horiz-adv-x="326" />
<glyph unicode="&#x200a;" horiz-adv-x="90" />
<glyph unicode="&#x2010;" d="M195 469l38 182h498l-39 -182h-497z" />
<glyph unicode="&#x2011;" d="M195 469l38 182h498l-39 -182h-497z" />
<glyph unicode="&#x2012;" d="M195 469l38 182h498l-39 -182h-497z" />
<glyph unicode="&#x2013;" horiz-adv-x="1081" d="M197 477l39 166h888l-39 -166h-888z" />
<glyph unicode="&#x2014;" horiz-adv-x="1689" d="M197 477l39 166h1497l-39 -166h-1497z" />
<glyph unicode="&#x2018;" horiz-adv-x="524" d="M332 911l55 254l178 289h117l-152 -291h105l-53 -252h-250z" />
<glyph unicode="&#x2019;" horiz-adv-x="524" d="M346 911l152 291h-105l53 252h250l-55 -254l-178 -289h-117z" />
<glyph unicode="&#x201a;" horiz-adv-x="524" d="M90 -291l152 291h-105l53 252h250l-55 -254l-178 -289h-117z" />
<glyph unicode="&#x201c;" horiz-adv-x="933" d="M332 911l55 254l178 289h117l-152 -291h105l-53 -252h-250zM741 911l56 254l178 289h117l-152 -291h104l-53 -252h-250z" />
<glyph unicode="&#x201d;" horiz-adv-x="933" d="M346 911l152 291h-105l53 252h250l-55 -254l-178 -289h-117zM756 909l151 291h-104l53 252h250l-55 -254l-179 -289h-116z" />
<glyph unicode="&#x201e;" horiz-adv-x="933" d="M90 -291l152 291h-105l53 252h250l-55 -254l-178 -289h-117zM500 -291l151 291h-104l53 252h250l-55 -254l-179 -289h-116z" />
<glyph unicode="&#x2022;" horiz-adv-x="835" d="M270 618q0 116 82 197.5t197 81.5t196.5 -81.5t81.5 -197.5t-81.5 -197t-196.5 -81q-116 0 -197.5 81.5t-81.5 196.5z" />
<glyph unicode="&#x2026;" horiz-adv-x="1345" d="M104 135q0 63 45 107.5t107 44.5q63 0 107.5 -44.5t44.5 -107.5t-44.5 -107t-107.5 -44q-62 0 -107 44t-45 107zM551 135q0 63 44.5 107.5t106.5 44.5q63 0 107.5 -44.5t44.5 -107.5t-44.5 -107t-107.5 -44q-62 0 -106.5 44t-44.5 107zM997 135q0 63 45 107.5t107 44.5 q63 0 107 -44.5t44 -107.5t-44 -107t-107 -44q-62 0 -107 44t-45 107z" />
<glyph unicode="&#x202f;" horiz-adv-x="326" />
<glyph unicode="&#x2039;" horiz-adv-x="604" d="M166 522l409 445l107 -99l-340 -364l178 -385l-137 -62z" />
<glyph unicode="&#x203a;" horiz-adv-x="604" d="M139 156l340 364l-178 385l137 62l217 -465l-409 -445z" />
<glyph unicode="&#x205f;" horiz-adv-x="408" />
<glyph unicode="&#x20ac;" horiz-adv-x="1447" d="M131 520l72 123h217v23q0 74 12 147h-242l74 125h203q40 113 112 208.5t170.5 168.5t228.5 114t277 41q256 0 422 -147l-96 -162q-62 62 -149.5 97.5t-190.5 35.5q-205 0 -355 -97.5t-220 -258.5h784l-74 -125h-749q-13 -70 -13 -131v-39h662l-74 -123h-567 q44 -160 167.5 -260t311.5 -100q128 0 242 49l-43 -197q-98 -28 -209 -28q-138 0 -255.5 42t-200.5 115.5t-137.5 170t-76.5 208.5h-303z" />
<glyph unicode="&#x2122;" horiz-adv-x="1746" d="M365 1331v123h532v-123h-201v-604h-135v604h-196zM1020 727v760l375 -369l374 369v-760h-133v467l-241 -238l-244 238v-467h-131z" />
<glyph unicode="&#x25fc;" horiz-adv-x="1024" d="M0 0v1024h1024v-1024h-1024z" />
</font>
</defs>
</svg>
